<svg width="995" height="183" viewBox="0 0 995 183" fill="none" xmlns="http://www.w3.org/2000/svg">
<g clip-path="url(#clip0_8255_445)">
<path d="M257.34 182.42L264.34 163.12H268.64L261.64 182.42H257.34ZM273.54 182.42L280.54 163.12H286.74L289.34 178.32L294.84 163.12H298.84L291.84 182.42H285.74L283.04 167.12L277.44 182.42H273.44H273.54ZM308.94 182.42L314.64 166.82H308.24L309.54 163.12H326.74L325.44 166.82H318.94L313.24 182.42H308.94ZM330.34 182.42L337.34 163.12H352.14L350.84 166.72H340.34L338.84 170.82H348.74L347.44 174.32H337.54L335.94 178.72H346.64L345.34 182.32H330.34V182.42ZM366.74 166.72L364.84 171.92H369.64C372.34 171.92 373.44 171.22 374.24 169.12C375.04 167.02 374.24 166.62 371.44 166.62H366.74V166.72ZM361.04 182.42H356.74L363.74 163.12H373.24C378.84 163.12 380.24 164.72 378.74 168.72C377.24 172.72 376.44 172.72 374.04 173.42C376.14 173.82 376.54 175.02 375.44 177.92L373.84 182.42H369.54L370.84 178.82C371.84 176.12 371.34 175.62 368.34 175.62H363.54L361.04 182.42ZM399.84 166.42L393.44 175.12H399.94V166.42H399.84ZM388.14 182.42H383.64L398.04 163.12H403.94L404.34 182.42H399.84V178.62H390.84L388.04 182.42H388.14ZM422.74 182.72C415.24 182.72 414.14 180.52 417.04 172.72C419.94 164.92 422.54 162.72 430.04 162.72C437.54 162.72 438.14 164.32 436.24 169.62L436.04 170.22H431.84V169.92C432.94 167.32 432.24 166.52 428.74 166.52C425.24 166.52 423.54 167.12 421.54 172.82C419.54 178.52 419.84 179.12 424.24 179.12C428.64 179.12 429.04 178.32 430.04 175.42V175.12H434.34L434.14 175.72C432.24 180.92 429.44 182.82 422.84 182.82L422.74 182.72ZM447.54 182.42L453.24 166.82H446.84L448.14 163.12H465.34L464.04 166.82H457.54L451.84 182.42H447.54ZM468.94 182.42L475.94 163.12H480.24L473.24 182.42H468.94ZM490.74 182.42L490.44 163.12H495.14L494.84 178.82L505.94 163.12H510.54L496.24 182.42H490.74ZM513.74 182.42L520.74 163.12H535.54L534.24 166.72H523.74L522.24 170.82H532.14L530.84 174.32H520.94L519.34 178.72H530.04L528.74 182.32H513.74V182.42ZM565.74 166.72L563.84 171.92H568.64C571.34 171.92 572.44 171.22 573.24 169.12C574.04 167.02 573.24 166.62 570.44 166.62H565.74V166.72ZM560.14 182.42H555.84L562.84 163.12H572.34C577.94 163.12 579.34 164.72 577.84 168.72C576.34 172.72 575.54 172.72 573.14 173.42C575.24 173.82 575.64 175.02 574.54 177.92L572.94 182.42H568.64L569.94 178.82C570.94 176.12 570.44 175.62 567.44 175.62H562.64L560.14 182.42ZM584.34 182.42L591.34 163.12H606.14L604.84 166.72H594.34L592.84 170.82H602.74L601.44 174.32H591.54L589.94 178.72H600.64L599.34 182.32H584.34V182.42ZM610.84 182.42L617.84 163.12H632.54L631.24 166.82H620.84L619.14 171.52H628.94L627.64 175.22H617.84L615.24 182.42H610.84ZM644.34 182.62C639.44 182.62 635.74 182.52 637.84 176.72L638.04 176.22H642.34L642.14 176.72C641.84 177.52 641.74 178.02 641.94 178.42C642.34 179.02 643.34 179.12 645.54 179.12C647.74 179.12 649.04 179.02 649.84 178.42C650.24 178.12 650.54 177.62 650.74 177.02C650.94 176.42 651.14 175.72 650.94 175.42C650.54 174.72 649.34 174.72 645.84 174.52C641.54 174.32 639.14 173.72 640.94 168.82C642.74 163.92 642.44 165.62 643.64 164.72C645.44 163.42 647.74 163.02 651.24 163.02C654.74 163.02 657.04 163.42 657.74 164.62C658.34 165.52 658.04 166.92 657.34 168.82V169.12H653.04V168.82C653.44 168.12 653.54 167.52 653.34 167.22C653.04 166.72 651.94 166.52 649.94 166.52C647.94 166.52 646.84 166.62 646.04 167.22C645.64 167.52 645.44 167.92 645.14 168.62C644.84 169.32 644.84 169.82 644.94 170.12C645.34 170.72 646.44 170.72 649.34 170.92C652.64 171.12 654.74 171.32 655.44 172.52C655.94 173.32 655.74 174.72 654.94 176.82C654.14 178.92 653.34 180.02 652.14 180.92C650.34 182.22 647.84 182.72 644.14 182.72L644.34 182.62ZM664.24 182.42L671.24 163.12H675.54L672.84 170.62H681.94L684.64 163.12H688.94L681.94 182.42H677.64L680.44 174.72H671.34L668.54 182.42H664.24ZM693.84 182.42L700.84 163.12H715.64L714.34 166.72H703.84L702.34 170.82H712.24L710.94 174.32H701.04L699.44 178.72H710.14L708.84 182.32H693.84V182.42ZM720.24 182.42L727.24 163.12H742.04L740.74 166.72H730.24L728.74 170.82H738.64L737.34 174.32H727.44L725.84 178.72H736.54L735.24 182.32H720.24V182.42ZM751.64 182.42L757.34 166.82H750.94L752.24 163.12H769.44L768.14 166.82H761.64L755.94 182.42H751.64ZM795.94 182.62C791.04 182.62 787.34 182.52 789.44 176.72L789.64 176.22H793.94L793.74 176.72C793.44 177.52 793.34 178.02 793.54 178.42C793.94 179.02 794.94 179.12 797.14 179.12C799.34 179.12 800.64 179.02 801.44 178.42C801.84 178.12 802.14 177.62 802.34 177.02C802.54 176.42 802.74 175.72 802.54 175.42C802.14 174.72 800.94 174.72 797.44 174.52C793.14 174.32 790.74 173.72 792.54 168.82C794.34 163.92 794.04 165.62 795.24 164.72C797.04 163.42 799.34 163.02 802.84 163.02C806.34 163.02 808.64 163.42 809.34 164.62C809.94 165.52 809.64 166.92 808.94 168.82V169.12H804.64V168.82C805.04 168.12 805.14 167.52 804.94 167.22C804.64 166.72 803.54 166.52 801.54 166.52C799.54 166.52 798.44 166.62 797.64 167.22C797.24 167.52 797.04 167.92 796.74 168.62C796.44 169.32 796.44 169.82 796.54 170.12C796.94 170.72 798.04 170.72 800.94 170.92C804.24 171.12 806.34 171.32 807.04 172.52C807.54 173.32 807.34 174.72 806.54 176.82C805.74 178.92 804.94 180.02 803.74 180.92C801.94 182.22 799.44 182.72 795.74 182.72L795.94 182.62ZM820.64 182.42L823.04 175.92L820.14 163.12H824.94L826.64 172.22L834.94 163.12H839.54L827.34 175.92L824.94 182.42H820.64ZM849.74 182.62C844.84 182.62 841.14 182.52 843.24 176.72L843.44 176.22H847.74L847.54 176.72C847.24 177.52 847.14 178.02 847.34 178.42C847.74 179.02 848.74 179.12 850.94 179.12C853.14 179.12 854.44 179.02 855.24 178.42C855.64 178.12 855.94 177.62 856.14 177.02C856.34 176.42 856.54 175.72 856.34 175.42C855.94 174.72 854.74 174.72 851.24 174.52C846.94 174.32 844.54 173.72 846.34 168.82C848.14 163.92 847.84 165.62 849.04 164.72C850.84 163.42 853.14 163.02 856.64 163.02C860.14 163.02 862.44 163.42 863.14 164.62C863.74 165.52 863.44 166.92 862.74 168.82V169.12H858.44V168.82C858.84 168.12 858.94 167.52 858.74 167.22C858.44 166.72 857.34 166.52 855.34 166.52C853.34 166.52 852.24 166.62 851.44 167.22C851.04 167.52 850.84 167.92 850.54 168.62C850.24 169.32 850.24 169.82 850.34 170.12C850.74 170.72 851.84 170.72 854.74 170.92C858.04 171.12 860.14 171.32 860.84 172.52C861.34 173.32 861.14 174.72 860.34 176.82C859.54 178.92 858.74 180.02 857.54 180.92C855.74 182.22 853.24 182.72 849.54 182.72L849.74 182.62ZM874.24 182.42L879.94 166.82H873.54L874.84 163.12H892.04L890.74 166.82H884.24L878.54 182.42H874.24ZM895.64 182.42L902.64 163.12H917.44L916.14 166.72H905.64L904.14 170.82H914.04L912.74 174.32H902.84L901.24 178.72H911.94L910.64 182.32H895.64V182.42ZM922.04 182.42L929.04 163.12H935.64L936.14 177.42L946.74 163.12H953.34L946.34 182.42H942.14L947.74 167.12L936.44 182.42H932.24L931.74 167.12L926.24 182.42H922.04Z" fill="white"/>
<path d="M125.34 84.0195C146.879 84.0195 164.34 66.5586 164.34 45.0195C164.34 23.4804 146.879 6.01953 125.34 6.01953C103.801 6.01953 86.3398 23.4804 86.3398 45.0195C86.3398 66.5586 103.801 84.0195 125.34 84.0195Z" fill="white"/>
<path d="M249.44 88.4197C243.54 69.0197 217.74 56.7197 183.04 53.7197V54.1197C208.04 57.5197 226.04 66.8197 230.24 80.9197C235.34 97.7197 219.74 117.32 192.14 132.82L179.44 110.82C173.84 101.02 163.44 95.0197 152.14 95.0197H98.54C87.24 95.0197 76.84 101.02 71.24 110.82L60.34 129.72C48.74 149.82 88.24 156.92 103.64 158.32V158.82C43.84 163.02 19.94 148.02 15.14 131.92C10.24 115.62 27.64 93.4197 67.64 73.0197V72.6197C15.74 94.8197 -5.36 125.62 1.14 147.32C10.84 179.22 74.24 191.92 142.74 175.72C211.34 159.52 259.04 120.42 249.34 88.5197L249.44 88.4197Z" fill="white"/>
<path d="M390.53 41.5098H337.82C314.37 41.5098 299.01 52.9198 290.92 76.3698L266.85 145.27H323.71L348.41 74.7098C350.28 69.1098 353.81 66.4098 359.41 66.4098H381.82L390.54 41.5098H390.53Z" fill="white"/>
<path d="M818.649 113.31H761.789L760.959 115.8C759.089 121.2 755.359 124.1 750.169 124.31C745.399 124.1 743.529 120.57 745.189 115.8L750.009 102.1H822.599L832.979 72.63C839.619 53.75 831.529 41.5 812.639 41.5H745.399C724.439 41.5 710.739 51.88 703.479 72.63L688.949 114.14C682.309 132.82 690.399 145.27 709.289 145.27H776.529C797.489 145.27 813.049 135.52 818.449 114.14L818.659 113.31H818.649ZM771.749 62.47C776.319 62.47 778.599 65.79 776.939 70.36L773.199 81.15H757.369L761.159 70.36C763.029 65.17 766.559 62.47 771.739 62.47H771.749Z" fill="white"/>
<path d="M947.529 80.1H942.189L994.839 41.5H946.899L898.479 77L925.319 0H868.669L818.029 145.27H874.679L890.089 101.07H906.229C911.419 101.07 913.289 104.39 911.629 109.37L899.179 145.27H956.039L967.869 111.24C974.299 92.56 966.419 80.11 947.529 80.11V80.1Z" fill="white"/>
<path d="M654.499 112.06L670.399 66.4002H697.249L705.969 41.5002H679.079L689.989 10.1602L627.109 27.5902L622.239 41.4902H595.159L598.049 33.1902C599.919 27.5902 603.649 24.8902 609.259 24.8902H622.129L630.849 -0.00976562H583.949C563.199 -0.00976562 549.289 10.1602 542.029 31.1202L502.189 145.26H559.049L586.499 66.4002H613.529L596.819 114.13C590.179 132.81 598.269 145.26 617.159 145.26H670.289L679.009 120.36H659.919C654.729 120.36 652.859 117.04 654.519 112.06H654.499Z" fill="white"/>
<path d="M503.63 113.31H446.77L445.94 115.8C444.07 121.2 440.34 124.1 435.15 124.31C430.38 124.1 428.51 120.57 430.17 115.8L434.99 102.1H507.58L517.96 72.63C524.6 53.75 516.51 41.5 497.62 41.5H430.38C409.42 41.5 395.72 51.88 388.46 72.63L373.93 114.14C367.29 132.82 375.38 145.27 394.27 145.27H461.51C482.47 145.27 498.03 135.52 503.43 114.14L503.64 113.31H503.63ZM456.73 62.47C461.3 62.47 463.58 65.79 461.92 70.36L458.18 81.15H442.35L446.14 70.36C448.01 65.17 451.54 62.47 456.72 62.47H456.73Z" fill="white"/>
</g>
<defs>
<clipPath id="clip0_8255_445">
<rect width="994.84" height="182.82" fill="white"/>
</clipPath>
</defs>
</svg>
